<svg xmlns="http://www.w3.org/2000/svg" width="600" height="600" fill="none"><rect width="600" height="600" rx="84" fill="url(#A)"/><path d="M128.275 148.294h41.659V468h-41.659V148.294zm284.053 284.587c19.861 0 37.057-2.745 51.589-8.235 14.693-5.49 25.108-10.818 31.244-15.985l18.165 35.603c-7.266 6.459-19.941 12.998-38.026 19.619-17.923 6.62-39.478 9.93-64.667 9.93-23.575 0-45.453-4.198-65.637-12.595s-37.864-20.102-53.042-35.119c-15.016-15.016-26.804-32.536-35.361-52.557-8.397-20.022-12.595-41.659-12.595-64.91s4.198-44.969 12.595-65.153 20.102-37.783 35.119-52.799c15.178-15.178 32.858-26.966 53.042-35.362 20.345-8.558 42.304-12.837 65.879-12.837 25.189 0 46.744 3.311 64.667 9.931 18.085 6.62 30.76 13.159 38.026 19.618l-18.165 35.604c-6.136-5.329-16.551-10.657-31.244-15.986-14.532-5.49-31.728-8.235-51.589-8.235-18.084 0-34.635 3.068-49.651 9.204s-28.096 14.855-39.237 26.158c-10.98 11.141-19.537 24.301-25.673 39.479-5.974 15.178-8.962 31.728-8.962 49.651 0 18.084 2.988 34.796 8.962 50.136 6.136 15.178 14.693 28.418 25.673 39.721 11.141 11.141 24.22 19.779 39.237 25.915s31.567 9.204 49.651 9.204z" fill="#fff"/><defs><linearGradient id="A" x1="-25" y1="-69.5" x2="566.677" y2="600" gradientUnits="userSpaceOnUse"><stop offset=".03" stop-color="#00e5d1"/><stop offset=".99" stop-color="#2577f9"/></linearGradient></defs></svg>