<svg xmlns="http://www.w3.org/2000/svg" width="20" height="20" fill="#fff"><path d="M10 0C4.48 0 0 4.59 0 10.253c0 4.529 2.862 8.37 6.833 9.727.507.101.687-.219.687-.492l-.012-2.814c0-.956.32-1.58.679-1.898-2.227-.254-4.567-1.121-4.567-5.059a4.01 4.01 0 0 1 1.03-2.752c-.104-.259-.447-1.302.098-2.714 0 0 .838-.275 2.747 1.051.799-.227 1.655-.341 2.505-.345.85.004 1.705.118 2.503.345 1.911-1.326 2.747-1.051 2.747-1.051.545 1.412.202 2.455.098 2.714a4.02 4.02 0 0 1 1.03 2.752c0 4.041-2.34 4.909-4.561 5.168.286.256.545.708.635 1.371.57.262 2.018.715 2.91-1.852 0 0 .529-.985 1.533-1.057 0 0 .975-.013.068.623 0 0-.655.315-1.11 1.5 0 0-.587 1.83-3.369 1.21l-.016 1.909c0 .271-.184.588-.683.493C17.138 18.623 20 14.783 20 10.253 20 4.59 15.52 0 10 0z"/></svg>