<svg xmlns="http://www.w3.org/2000/svg" width="20" height="20" viewBox="0 0 24 24" fill="#fff"><path fill-rule="evenodd" d="M12 18a6 6 0 1 0 0-12 6 6 0 1 0 0 12zm0-2a4 4 0 1 1 0-8 4 4 0 1 1 0 8z"/><path d="M18 5a1 1 0 1 0 0 2 1 1 0 1 0 0-2z"/><path fill-rule="evenodd" d="M1.654 4.276C1 5.56 1 7.24 1 10.6v2.8c0 3.36 0 5.041.654 6.324a5.99 5.99 0 0 0 2.622 2.622C5.56 23 7.24 23 10.6 23h2.8c3.36 0 5.041 0 6.324-.654a5.99 5.99 0 0 0 2.622-2.622C23 18.441 23 16.76 23 13.4v-2.8c0-3.36 0-5.041-.654-6.324a5.99 5.99 0 0 0-2.622-2.622C18.44 1 16.76 1 13.4 1h-2.8c-3.36 0-5.04 0-6.324.654a5.99 5.99 0 0 0-2.622 2.622zM13.4 3h-2.8l-3.778.075c-.877.072-1.325.202-1.638.361a4 4 0 0 0-1.748 1.748c-.261.312-.391.76-.463 1.638L3 10.6v2.8l.075 3.778c.072.877.202 1.325.361 1.638a4 4 0 0 0 1.748 1.748c.312.261.76.391 1.638.463.9.073 2.065.075 3.778.075h2.8l3.778-.075c.877-.072 1.325-.202 1.638-.361a4 4 0 0 0 1.748-1.748c.261-.312.391-.76.463-1.638.073-.9.075-2.065.075-3.778v-2.8l-.075-3.778c-.072-.877-.202-1.325-.361-1.638a4 4 0 0 0-1.748-1.748c-.312-.261-.76-.391-1.638-.463-.9-.073-2.065-.075-3.778-.075z"/></svg>