<svg width="20px" height="20px" viewBox="0 0 24 24" fill="none" xmlns="http://www.w3.org/2000/svg"><path fill-rule="evenodd" clip-rule="evenodd" d="M12 18c3.314 0 6-2.686 6-6s-2.686-6-6-6-6 2.686-6 6 2.686 6 6 6zm0-2c-2.209 0-4-1.791-4-4s1.791-4 4-4 4 1.791 4 4-1.791 4-4 4z" fill="#fff"/><path d="M18 5c-.552 0-1 .448-1 1s.448 1 1 1 1-.448 1-1-.448-1-1-1z" fill="#fff"/><path fill-rule="evenodd" clip-rule="evenodd" d="M1.654 4.276C1 5.56 1 7.24 1 10.6v2.8c0 3.36 0 5.041.654 6.324.575 1.13 1.493 2.047 2.622 2.622C5.56 23 7.24 23 10.6 23h2.8c3.36 0 5.041 0 6.324-.654 1.13-.575 2.047-1.493 2.622-2.622.654-1.283.654-2.964.654-6.324v-2.8c0-3.36 0-5.041-.654-6.324-.575-1.13-1.493-2.047-2.622-2.622C18.44 1 16.76 1 13.4 1h-2.8C7.24 1 5.56 1 4.276 1.654c-1.13.575-2.047 1.493-2.622 2.622zM13.4 3h-2.8c-1.713 0-2.878.002-3.778.075-.877.072-1.325.202-1.638.361-.753.384-1.365.996-1.748 1.748-.261.312-.391.76-.463 1.638C3.002 7.722 3 8.887 3 10.6v2.8c0 1.713.002 2.878.075 3.778.072.877.202 1.325.361 1.638.384.753.996 1.365 1.748 1.748.312.261.76.391 1.638.463.9.073 2.065.075 3.778.075h2.8c1.713 0 2.878-.002 3.778-.075.877-.072 1.325-.202 1.638-.361.753-.384 1.365-.996 1.748-1.748.261-.312.391-.76.463-1.638.073-.9.075-2.065.075-3.778v-2.8c0-1.713-.002-2.878-.075-3.778-.072-.877-.202-1.325-.361-1.638-.384-.753-.996-1.365-1.748-1.748-.312-.261-.76-.391-1.638-.463-.9-.073-2.065-.075-3.778-.075z" fill="#fff"/></svg>
