<svg xmlns="http://www.w3.org/2000/svg" width="20" height="20" viewBox="0 -2 20 20"><path d="M6.29 16c7.547 0 11.675-6.156 11.675-11.494 0-.176 0-.35-.012-.523A8.27 8.27 0 0 0 20 1.892c-.748.327-1.543.542-2.356.637A4.07 4.07 0 0 0 19.448.295a8.31 8.31 0 0 1-2.606.98C15.288-.351 12.689-.43 11.036 1.1c-1.065.987-1.518 2.458-1.187 3.861C6.55 4.798 3.476 3.264 1.392.741.303 2.587.86 4.948 2.663 6.134 2.01 6.115 1.371 5.942.8 5.629v.051c0 1.923 1.377 3.579 3.291 3.96a4.14 4.14 0 0 1-1.852.07c.537 1.647 2.078 2.774 3.833 2.807-1.453 1.124-3.248 1.734-5.096 1.732a8.2 8.2 0 0 1-.977-.059c1.877 1.185 4.06 1.815 6.29 1.812z" fill="#fff"/></svg>