<svg width="20px" height="20px" viewBox="0 -2 20 20" xmlns="http://www.w3.org/2000/svg"><g fill="#fff"><g transform="translate(-60 -7521)"><g transform="translate(56 160)"><path d="M10.29 7377c7.547 0 11.675-6.156 11.675-11.494 0-.176 0-.35-.012-.523.803-.571 1.496-1.28 2.047-2.091-.748.327-1.543.542-2.356.637.856-.505 1.497-1.298 1.804-2.234-.806.47-1.687.802-2.606.98-1.554-1.626-4.153-1.705-5.806-.175-1.065.987-1.518 2.458-1.187 3.861-3.299-.163-6.373-1.697-8.457-4.22-1.089 1.846-.532 4.207 1.271 5.393-.653-.019-1.292-.192-1.863-.505v.051c0 1.923 1.377 3.579 3.291 3.96-.604.163-1.238.187-1.852.07.537 1.647 2.078 2.774 3.833 2.807-1.453 1.124-3.248 1.734-5.096 1.732-.326 0-.652-.02-.977-.059 1.877 1.185 4.06 1.815 6.29 1.812z"/></g></g></g></svg>
