<svg width="289" height="383" viewBox="0 0 289 383" fill="none" xmlns="http://www.w3.org/2000/svg">
<path d="M95.4427 66.9216C95.4427 68.9019 94.7475 70.5872 93.3571 71.9776C92.0089 73.3259 90.3657 74 88.4275 74H80.9699C80.7593 74 80.5486 74.0843 80.3379 74.2528C80.1694 74.4213 80.0851 74.6109 80.0851 74.8216V81.2048C80.0851 82.0053 79.8113 82.6795 79.2635 83.2272C78.7158 83.8171 78.0417 84.112 77.2411 84.112H75.4715C74.671 84.112 73.9758 83.8171 73.3859 83.2272C72.8382 82.6795 72.5643 82.0053 72.5643 81.2048V48.3408C72.5643 47.0347 72.8803 45.8549 73.5123 44.8016C74.1865 43.7061 75.0502 42.8424 76.1035 42.2104C77.1569 41.5784 78.3366 41.2624 79.6427 41.2624H88.4275C89.7337 41.2624 90.9134 41.5784 91.9667 42.2104C93.0201 42.8424 93.8627 43.7061 94.4947 44.8016C95.1267 45.8549 95.4427 47.0347 95.4427 48.3408V66.9216ZM87.9851 65.7208V49.668C87.9851 49.4152 87.8798 49.2045 87.6691 49.036C87.5006 48.8675 87.311 48.7832 87.1003 48.7832H80.9699C80.7593 48.7832 80.5486 48.8675 80.3379 49.036C80.1694 49.2045 80.0851 49.4152 80.0851 49.668V65.7208C80.0851 65.9315 80.1694 66.1211 80.3379 66.2896C80.5486 66.4581 80.7593 66.5424 80.9699 66.5424H87.1003C87.311 66.5424 87.5006 66.4581 87.6691 66.2896C87.8798 66.1211 87.9851 65.9315 87.9851 65.7208ZM110.128 35.3216C110.128 36.6277 109.643 37.7653 108.674 38.7344C107.747 39.6613 106.652 40.1248 105.388 40.1248C104.082 40.1248 102.944 39.6613 101.975 38.7344C101.048 37.7653 100.585 36.6277 100.585 35.3216C100.585 34.0576 101.048 32.9621 101.975 32.0352C102.944 31.0661 104.082 30.5816 105.388 30.5816C106.652 30.5816 107.747 31.0661 108.674 32.0352C109.643 32.9621 110.128 34.0576 110.128 35.3216ZM109.117 71.0928C109.117 71.8933 108.822 72.5885 108.232 73.1784C107.684 73.7261 107.01 74 106.209 74H104.503C103.703 74 103.007 73.7261 102.417 73.1784C101.87 72.5885 101.596 71.8933 101.596 71.0928V44.8648C101.596 44.0643 101.87 43.3901 102.417 42.8424C103.007 42.2525 103.703 41.9576 104.503 41.9576H106.209C107.01 41.9576 107.684 42.2525 108.232 42.8424C108.822 43.3901 109.117 44.0643 109.117 44.8648V71.0928ZM136.131 45.4968L126.082 65.784C125.956 65.9525 125.935 66.1211 126.019 66.2896C126.146 66.4581 126.293 66.5424 126.462 66.5424H133.161C133.919 66.5424 134.572 66.8163 135.12 67.364C135.71 67.9117 136.005 68.6069 136.005 69.4496V71.0928C136.005 71.8933 135.71 72.5885 135.12 73.1784C134.572 73.7261 133.919 74 133.161 74H118.182C117.087 74 116.265 73.5365 115.718 72.6096C115.17 71.6827 115.128 70.7557 115.591 69.8288L125.703 49.4784C125.787 49.352 125.787 49.2045 125.703 49.036C125.619 48.8675 125.471 48.7832 125.261 48.7832H118.814C118.014 48.7832 117.319 48.5093 116.729 47.9616C116.181 47.4139 115.907 46.7397 115.907 45.9392V44.2328C115.907 43.3901 116.181 42.6949 116.729 42.1472C117.319 41.5573 118.014 41.2624 118.814 41.2624H133.54C134.593 41.2624 135.415 41.7259 136.005 42.6528C136.553 43.5797 136.595 44.5277 136.131 45.4968ZM164.444 55.2296C164.444 56.4936 164.128 57.6733 163.496 58.7688C162.864 59.8221 162.022 60.6859 160.968 61.36C159.915 61.992 158.735 62.308 157.429 62.308H149.971C149.761 62.308 149.55 62.3923 149.339 62.5608C149.171 62.6872 149.087 62.8557 149.087 63.0664V65.7208C149.087 65.9315 149.171 66.1211 149.339 66.2896C149.55 66.4581 149.761 66.5424 149.971 66.5424H157.429C158.23 66.5424 158.904 66.8163 159.451 67.364C160.041 67.9117 160.336 68.6069 160.336 69.4496V71.0928C160.336 71.8933 160.041 72.5885 159.451 73.1784C158.904 73.7261 158.23 74 157.429 74H148.644C146.706 74 145.042 73.3259 143.651 71.9776C142.261 70.5872 141.566 68.9019 141.566 66.9216V48.3408C141.566 47.0347 141.882 45.8549 142.514 44.8016C143.188 43.7483 144.052 42.9056 145.105 42.2736C146.158 41.5995 147.338 41.2624 148.644 41.2624H157.429C158.735 41.2624 159.915 41.5995 160.968 42.2736C162.022 42.9056 162.864 43.7483 163.496 44.8016C164.128 45.8549 164.444 47.0347 164.444 48.3408V55.2296ZM156.987 53.9656V49.668C156.987 49.4152 156.881 49.2045 156.671 49.036C156.502 48.8675 156.313 48.7832 156.102 48.7832H149.971C149.761 48.7832 149.55 48.8675 149.339 49.036C149.171 49.2045 149.087 49.4152 149.087 49.668V53.9656C149.087 54.1341 149.171 54.3027 149.339 54.4712C149.55 54.6397 149.761 54.724 149.971 54.724H156.102C156.313 54.724 156.502 54.6397 156.671 54.4712C156.881 54.3027 156.987 54.1341 156.987 53.9656ZM188.357 45.9392C188.357 46.7397 188.083 47.4139 187.535 47.9616C186.987 48.5093 186.313 48.7832 185.513 48.7832H177.992C177.444 48.7832 177.17 49.0781 177.17 49.668V71.0928C177.17 71.8933 176.875 72.5885 176.285 73.1784C175.738 73.7261 175.064 74 174.263 74H172.493C171.693 74 171.019 73.7261 170.471 73.1784C169.923 72.5885 169.649 71.8933 169.649 71.0928V48.3408C169.649 47.0347 169.965 45.8549 170.597 44.8016C171.229 43.7061 172.072 42.8424 173.125 42.2104C174.179 41.5784 175.358 41.2624 176.665 41.2624H185.513C186.313 41.2624 186.987 41.5573 187.535 42.1472C188.083 42.6949 188.357 43.3901 188.357 44.2328V45.9392ZM216.35 66.9216C216.35 68.9019 215.655 70.5872 214.264 71.9776C212.916 73.3259 211.273 74 209.335 74H200.55C198.612 74 196.947 73.3259 195.557 71.9776C194.167 70.5872 193.471 68.9019 193.471 66.9216V48.3408C193.471 47.0347 193.787 45.8549 194.419 44.8016C195.094 43.7061 195.957 42.8424 197.011 42.2104C198.064 41.5784 199.244 41.2624 200.55 41.2624H209.335C210.641 41.2624 211.82 41.5784 212.874 42.2104C213.927 42.8424 214.77 43.7061 215.402 44.8016C216.034 45.8549 216.35 47.0347 216.35 48.3408V66.9216ZM208.892 65.7208V49.668C208.892 49.4152 208.787 49.2045 208.576 49.036C208.408 48.8675 208.218 48.7832 208.007 48.7832H201.877C201.666 48.7832 201.456 48.8675 201.245 49.036C201.076 49.2045 200.992 49.4152 200.992 49.668V65.7208C200.992 65.9315 201.076 66.1211 201.245 66.2896C201.456 66.4581 201.666 66.5424 201.877 66.5424H208.007C208.218 66.5424 208.408 66.4581 208.576 66.2896C208.787 66.1211 208.892 65.9315 208.892 65.7208Z" fill="#3AB14A"/>
<path d="M53.1427 189.093C53.1427 189.893 52.8689 190.589 52.3211 191.178C51.7734 191.726 51.0782 192 50.2355 192H48.5291C47.7286 192 47.0334 191.726 46.4435 191.178C45.8958 190.589 45.6219 189.893 45.6219 189.093V170.07C45.6219 169.901 45.5377 169.796 45.3691 169.754C45.2427 169.711 45.1374 169.754 45.0531 169.88L38.9859 182.394C38.8595 182.731 38.5857 183.026 38.1643 183.278C37.743 183.531 37.3427 183.742 36.9635 183.91C36.6265 184.037 36.4579 184.1 36.4579 184.1C35.1518 184.1 34.2881 183.531 33.8667 182.394L27.7995 169.88C27.7574 169.754 27.6521 169.711 27.4835 169.754C27.315 169.796 27.2307 169.901 27.2307 170.07V189.093C27.2307 189.893 26.9358 190.589 26.3459 191.178C25.7982 191.726 25.1241 192 24.3235 192H22.5539C21.7534 192 21.0582 191.726 20.4683 191.178C19.9206 190.589 19.6467 189.893 19.6467 189.093V152.184C19.6467 151.341 19.9206 150.646 20.4683 150.098C21.0582 149.551 21.7534 149.277 22.5539 149.277H24.3867C25.5665 149.277 26.4302 149.825 26.9779 150.92C27.1886 151.383 27.6099 152.289 28.2419 153.638C28.9161 154.944 29.6955 156.503 30.5803 158.314C31.4651 160.126 32.371 162.043 33.2979 164.066C34.267 166.046 35.1939 167.942 36.0787 169.754C36.163 169.922 36.2683 170.006 36.3947 170.006C36.5633 170.006 36.6897 169.922 36.7739 169.754L45.8115 150.92C46.3593 149.825 47.2441 149.277 48.4659 149.277H50.2355C51.0782 149.277 51.7734 149.551 52.3211 150.098C52.8689 150.646 53.1427 151.341 53.1427 152.184V189.093ZM81.1611 184.922C81.1611 186.902 80.4659 188.587 79.0755 189.978C77.7272 191.326 76.084 192 74.1459 192H65.3611C63.4229 192 61.7587 191.326 60.3683 189.978C58.9779 188.587 58.2827 186.902 58.2827 184.922V166.341C58.2827 165.035 58.5987 163.855 59.2307 162.802C59.9048 161.706 60.7685 160.842 61.8219 160.21C62.8752 159.578 64.0549 159.262 65.3611 159.262H74.1459C75.452 159.262 76.6317 159.578 77.6851 160.21C78.7384 160.842 79.5811 161.706 80.2131 162.802C80.8451 163.855 81.1611 165.035 81.1611 166.341V184.922ZM73.7035 183.721V167.668C73.7035 167.415 73.5981 167.205 73.3875 167.036C73.2189 166.867 73.0293 166.783 72.8187 166.783H66.6883C66.4776 166.783 66.2669 166.867 66.0563 167.036C65.8877 167.205 65.8035 167.415 65.8035 167.668V183.721C65.8035 183.931 65.8877 184.121 66.0563 184.29C66.2669 184.458 66.4776 184.542 66.6883 184.542H72.8187C73.0293 184.542 73.2189 184.458 73.3875 184.29C73.5981 184.121 73.7035 183.931 73.7035 183.721ZM109.181 189.093C109.181 189.893 108.908 190.589 108.36 191.178C107.812 191.726 107.138 192 106.337 192H104.568C103.767 192 103.093 191.726 102.545 191.178C101.998 190.589 101.724 189.893 101.724 189.093V167.668C101.724 167.415 101.618 167.205 101.408 167.036C101.239 166.867 101.05 166.783 100.839 166.783H94.7086C94.4979 166.783 94.2873 166.867 94.0766 167.036C93.9081 167.205 93.8238 167.415 93.8238 167.668V189.093C93.8238 189.893 93.5499 190.589 93.0022 191.178C92.4545 191.726 91.7803 192 90.9798 192H89.2102C88.4097 192 87.7145 191.726 87.1246 191.178C86.5769 190.589 86.303 189.893 86.303 189.093V166.341C86.303 165.035 86.619 163.855 87.251 162.802C87.9251 161.706 88.7889 160.842 89.8422 160.21C90.8955 159.578 92.0753 159.262 93.3814 159.262H102.166C103.472 159.262 104.652 159.578 105.705 160.21C106.759 160.842 107.601 161.706 108.233 162.802C108.865 163.855 109.181 165.035 109.181 166.341V189.093ZM123.867 153.322C123.867 154.628 123.382 155.765 122.413 156.734C121.486 157.661 120.391 158.125 119.127 158.125C117.82 158.125 116.683 157.661 115.714 156.734C114.787 155.765 114.323 154.628 114.323 153.322C114.323 152.058 114.787 150.962 115.714 150.035C116.683 149.066 117.82 148.582 119.127 148.582C120.391 148.582 121.486 149.066 122.413 150.035C123.382 150.962 123.867 152.058 123.867 153.322ZM122.855 189.093C122.855 189.893 122.56 190.589 121.971 191.178C121.423 191.726 120.749 192 119.948 192H118.242C117.441 192 116.746 191.726 116.156 191.178C115.608 190.589 115.335 189.893 115.335 189.093V162.865C115.335 162.064 115.608 161.39 116.156 160.842C116.746 160.253 117.441 159.958 118.242 159.958H119.948C120.749 159.958 121.423 160.253 121.971 160.842C122.56 161.39 122.855 162.064 122.855 162.865V189.093ZM147.721 189.093C147.721 189.893 147.447 190.589 146.899 191.178C146.352 191.726 145.678 192 144.877 192H136.029C134.091 192 132.427 191.326 131.036 189.978C129.688 188.587 129.014 186.902 129.014 184.922V152.184C129.014 151.341 129.288 150.646 129.835 150.098C130.383 149.551 131.057 149.277 131.858 149.277H133.627C134.428 149.277 135.102 149.551 135.65 150.098C136.24 150.646 136.535 151.341 136.535 152.184V158.504C136.535 159.01 136.809 159.262 137.356 159.262H144.877C145.678 159.262 146.352 159.557 146.899 160.147C147.447 160.695 147.721 161.39 147.721 162.233V163.939C147.721 164.655 147.447 165.33 146.899 165.962C146.267 166.509 145.593 166.783 144.877 166.783H137.356C136.809 166.783 136.535 167.078 136.535 167.668V183.721C136.535 184.269 136.809 184.542 137.356 184.542H144.877C145.678 184.542 146.352 184.816 146.899 185.364C147.447 185.912 147.721 186.607 147.721 187.45V189.093ZM175.714 184.922C175.714 186.902 175.019 188.587 173.629 189.978C172.28 191.326 170.637 192 168.699 192H159.914C157.976 192 156.312 191.326 154.921 189.978C153.531 188.587 152.836 186.902 152.836 184.922V166.341C152.836 165.035 153.152 163.855 153.784 162.802C154.458 161.706 155.322 160.842 156.375 160.21C157.428 159.578 158.608 159.262 159.914 159.262H168.699C170.005 159.262 171.185 159.578 172.238 160.21C173.292 160.842 174.134 161.706 174.766 162.802C175.398 163.855 175.714 165.035 175.714 166.341V184.922ZM168.257 183.721V167.668C168.257 167.415 168.151 167.205 167.941 167.036C167.772 166.867 167.582 166.783 167.372 166.783H161.241C161.031 166.783 160.82 166.867 160.609 167.036C160.441 167.205 160.357 167.415 160.357 167.668V183.721C160.357 183.931 160.441 184.121 160.609 184.29C160.82 184.458 161.031 184.542 161.241 184.542H167.372C167.582 184.542 167.772 184.458 167.941 184.29C168.151 184.121 168.257 183.931 168.257 183.721ZM199.627 163.939C199.627 164.74 199.353 165.414 198.805 165.962C198.257 166.509 197.583 166.783 196.783 166.783H189.262C188.714 166.783 188.44 167.078 188.44 167.668V189.093C188.44 189.893 188.145 190.589 187.555 191.178C187.008 191.726 186.333 192 185.533 192H183.763C182.963 192 182.289 191.726 181.741 191.178C181.193 190.589 180.919 189.893 180.919 189.093V166.341C180.919 165.035 181.235 163.855 181.867 162.802C182.499 161.706 183.342 160.842 184.395 160.21C185.449 159.578 186.628 159.262 187.935 159.262H196.783C197.583 159.262 198.257 159.557 198.805 160.147C199.353 160.695 199.627 161.39 199.627 162.233V163.939ZM214.284 153.322C214.284 154.628 213.8 155.765 212.831 156.734C211.904 157.661 210.808 158.125 209.544 158.125C208.238 158.125 207.101 157.661 206.132 156.734C205.205 155.765 204.741 154.628 204.741 153.322C204.741 152.058 205.205 150.962 206.132 150.035C207.101 149.066 208.238 148.582 209.544 148.582C210.808 148.582 211.904 149.066 212.831 150.035C213.8 150.962 214.284 152.058 214.284 153.322ZM213.273 189.093C213.273 189.893 212.978 190.589 212.388 191.178C211.841 191.726 211.167 192 210.366 192H208.66C207.859 192 207.164 191.726 206.574 191.178C206.026 190.589 205.752 189.893 205.752 189.093V162.865C205.752 162.064 206.026 161.39 206.574 160.842C207.164 160.253 207.859 159.958 208.66 159.958H210.366C211.167 159.958 211.841 160.253 212.388 160.842C212.978 161.39 213.273 162.064 213.273 162.865V189.093ZM242.247 189.093C242.247 189.893 241.973 190.589 241.425 191.178C240.878 191.726 240.204 192 239.403 192H237.633C236.833 192 236.159 191.726 235.611 191.178C235.063 190.589 234.789 189.893 234.789 189.093V167.668C234.789 167.415 234.684 167.205 234.473 167.036C234.305 166.867 234.115 166.783 233.905 166.783H227.774C227.564 166.783 227.353 166.867 227.142 167.036C226.974 167.205 226.889 167.415 226.889 167.668V189.093C226.889 189.893 226.616 190.589 226.068 191.178C225.52 191.726 224.846 192 224.045 192H222.276C221.475 192 220.78 191.726 220.19 191.178C219.643 190.589 219.369 189.893 219.369 189.093V166.341C219.369 165.035 219.685 163.855 220.317 162.802C220.991 161.706 221.855 160.842 222.908 160.21C223.961 159.578 225.141 159.262 226.447 159.262H235.232C236.538 159.262 237.718 159.578 238.771 160.21C239.824 160.842 240.667 161.706 241.299 162.802C241.931 163.855 242.247 165.035 242.247 166.341V189.093ZM270.267 195.034C270.267 196.298 269.951 197.456 269.319 198.51C268.687 199.605 267.845 200.469 266.791 201.101C265.738 201.775 264.558 202.112 263.252 202.112H254.467C253.667 202.112 252.972 201.817 252.382 201.227C251.834 200.679 251.56 200.005 251.56 199.205V197.435C251.56 196.635 251.834 195.961 252.382 195.413C252.972 194.865 253.667 194.591 254.467 194.591H261.925C262.136 194.591 262.325 194.507 262.494 194.338C262.704 194.17 262.81 193.98 262.81 193.77V192.822C262.81 192.611 262.704 192.421 262.494 192.253C262.325 192.084 262.136 192 261.925 192H254.467C252.529 192 250.865 191.326 249.475 189.978C248.084 188.587 247.389 186.902 247.389 184.922V166.341C247.389 165.035 247.705 163.855 248.337 162.802C249.011 161.706 249.875 160.842 250.928 160.21C251.981 159.578 253.161 159.262 254.467 159.262H263.252C264.558 159.262 265.738 159.578 266.791 160.21C267.845 160.842 268.687 161.706 269.319 162.802C269.951 163.855 270.267 165.035 270.267 166.341V195.034ZM262.81 183.721V167.668C262.81 167.415 262.704 167.205 262.494 167.036C262.325 166.867 262.136 166.783 261.925 166.783H255.795C255.584 166.783 255.373 166.867 255.163 167.036C254.994 167.205 254.91 167.415 254.91 167.668V183.721C254.91 183.931 254.994 184.121 255.163 184.29C255.373 184.458 255.584 184.542 255.795 184.542H261.925C262.136 184.542 262.325 184.458 262.494 184.29C262.704 184.121 262.81 183.931 262.81 183.721Z" fill="white"/>
<rect x="253" y="264.844" width="22" height="92" fill="#4FA371"/>
<rect x="5" y="253.844" width="281" height="115" fill="#54AF79"/>
<rect x="5" y="367.844" width="281" height="5" fill="#CDCEC2"/>
<rect x="91" y="268.844" width="75" height="67" fill="#4FA371"/>
<rect x="96" y="268.844" width="65" height="62" rx="7" fill="#7A8990"/>
<rect x="182" y="285.844" width="58" height="52" fill="#4FA371"/>
<rect x="186" y="285.844" width="49" height="47" fill="#D9E8FF"/>
<rect x="116" y="287.844" width="25" height="24" fill="#5E6A70"/>
<rect x="272" y="270.844" width="14" height="85" fill="#4FA371"/>
<rect x="277" y="270.844" width="12" height="65" fill="#5E6A70"/>
<rect x="281" y="275.844" width="8" height="7" fill="#EAD475"/>
<rect x="281" y="291.844" width="8" height="8" fill="#EAD475"/>
<rect x="281" y="307.844" width="8" height="8" fill="#EAD475"/>
<rect x="281" y="320.844" width="8" height="9" fill="#EAD475"/>
<rect x="277" y="341.844" width="12" height="10" fill="#48575B"/>
<rect x="21" y="260.844" width="51" height="27" fill="#4FA371"/>
<rect x="277" y="335.844" width="12" height="6" fill="#7A8990"/>
<rect x="25" y="260.844" width="43" height="18" fill="#5E6A70"/>
<rect x="25" y="278.844" width="43" height="5" fill="#48575B"/>
<rect x="5" y="301.844" width="44" height="37" fill="#4FA371"/>
<rect y="297.844" width="44" height="25" fill="#D9E8FF"/>
<rect x="3" y="301.844" width="6" height="6" fill="#6E85A0"/>
<rect x="3" y="311.844" width="6" height="6" fill="#6E85A0"/>
<rect y="322.844" width="44" height="5" fill="#EEF5FF"/>
<rect y="327.844" width="44" height="5" fill="#A4B7DB"/>
<rect x="57" y="279.844" width="5" height="8" fill="#D9E8FF"/>
<rect x="110" y="330.844" width="5" height="8" fill="#D9E8FF"/>
<rect x="102" y="330.844" width="5" height="8" fill="#D9E8FF"/>
<rect x="119" y="330.844" width="4" height="8" fill="#D9E8FF"/>
<rect x="126" y="330.844" width="5" height="8" fill="#D9E8FF"/>
<rect x="134" y="330.844" width="4" height="8" fill="#D9E8FF"/>
<rect x="142" y="330.844" width="5" height="8" fill="#D9E8FF"/>
<rect x="150" y="330.844" width="5" height="8" fill="#D9E8FF"/>
<rect x="110" y="264.844" width="5" height="4" fill="#D9E8FF"/>
<rect x="102" y="264.844" width="5" height="4" fill="#D9E8FF"/>
<rect x="119" y="264.844" width="4" height="4" fill="#D9E8FF"/>
<rect x="126" y="264.844" width="5" height="4" fill="#D9E8FF"/>
<rect x="134" y="264.844" width="4" height="4" fill="#D9E8FF"/>
<rect x="142" y="264.844" width="5" height="4" fill="#D9E8FF"/>
<rect x="150" y="264.844" width="5" height="4" fill="#D9E8FF"/>
<rect x="165" y="282.844" width="5" height="4" transform="rotate(90 165 282.844)" fill="#D9E8FF"/>
<rect x="165" y="273.844" width="5" height="4" transform="rotate(90 165 273.844)" fill="#D9E8FF"/>
<rect x="165" y="290.844" width="4" height="4" transform="rotate(90 165 290.844)" fill="#D9E8FF"/>
<rect x="165" y="297.844" width="5" height="4" transform="rotate(90 165 297.844)" fill="#D9E8FF"/>
<rect x="165" y="306.844" width="4" height="4" transform="rotate(90 165 306.844)" fill="#D9E8FF"/>
<rect x="165" y="313.844" width="5" height="4" transform="rotate(90 165 313.844)" fill="#D9E8FF"/>
<rect x="165" y="321.844" width="5" height="4" transform="rotate(90 165 321.844)" fill="#D9E8FF"/>
<rect x="96" y="282.844" width="5" height="4" transform="rotate(90 96 282.844)" fill="#D9E8FF"/>
<rect x="96" y="273.844" width="5" height="4" transform="rotate(90 96 273.844)" fill="#D9E8FF"/>
<rect x="96" y="290.844" width="4" height="4" transform="rotate(90 96 290.844)" fill="#D9E8FF"/>
<rect x="96" y="297.844" width="5" height="4" transform="rotate(90 96 297.844)" fill="#D9E8FF"/>
<rect x="96" y="306.844" width="4" height="4" transform="rotate(90 96 306.844)" fill="#D9E8FF"/>
<rect x="96" y="313.844" width="5" height="4" transform="rotate(90 96 313.844)" fill="#D9E8FF"/>
<rect x="96" y="321.844" width="5" height="4" transform="rotate(90 96 321.844)" fill="#D9E8FF"/>
<rect x="48" y="279.844" width="5" height="8" fill="#D9E8FF"/>
<rect x="39" y="279.844" width="5" height="8" fill="#D9E8FF"/>
<rect x="30" y="279.844" width="5" height="8" fill="#D9E8FF"/>
<path d="M139.04 268.844H150L131.96 330.844H121L139.04 268.844Z" fill="#8799A0" fill-opacity="0.22"/>
<rect x="236" y="351.844" width="25" height="11" fill="#4FA371"/>
<path d="M125.761 268.844H131L113.239 330.844H108L125.761 268.844Z" fill="#8799A0" fill-opacity="0.22"/>
<rect x="240" y="348.844" width="17" height="7" fill="#C9A55D"/>
<rect x="251" y="359.844" width="4" height="3" fill="#D1DEF2"/>
<rect x="243" y="359.844" width="4" height="3" fill="#D1DEF2"/>
<rect x="9" y="344.844" width="52" height="23" fill="#4FA371"/>
<rect x="240" y="355.844" width="17" height="4" fill="#B79455"/>
<rect x="239" y="260.844" width="24" height="10" fill="#4FA371"/>
<rect x="242" y="256.844" width="18" height="7" fill="#C9A55D"/>
<rect x="254" y="267.844" width="3" height="3" fill="#D1DEF2"/>
<rect x="246" y="267.844" width="3" height="3" fill="#D1DEF2"/>
<rect x="242" y="263.844" width="18" height="4" fill="#B79455"/>
<rect x="188" y="260.844" width="24" height="10" fill="#4FA371"/>
<rect x="191" y="256.844" width="18" height="7" fill="#C9A55D"/>
<rect x="203" y="267.844" width="3" height="3" fill="#D1DEF2"/>
<rect x="195" y="267.844" width="3" height="3" fill="#D1DEF2"/>
<rect x="191" y="263.844" width="18" height="4" fill="#B79455"/>
<rect x="12" y="348.844" width="45" height="15" fill="#D9E8FF"/>
<rect x="12" y="363.844" width="45" height="4" fill="#EEF5FF"/>
<path d="M14.5312 370.375H54.4688V375.919L50.0889 380.312H19.1152L14.5312 375.889V370.375Z" fill="#6E85A0" stroke="#A4B7DB" stroke-width="5.0625"/>
<rect x="20" y="371.844" width="5" height="3" fill="#D9E8FF"/>
<rect x="28" y="371.844" width="5" height="3" fill="#D9E8FF"/>
<rect x="36" y="371.844" width="5" height="3" fill="#D9E8FF"/>
<rect x="43" y="371.844" width="6" height="3" fill="#D9E8FF"/>
<rect x="71" y="344.844" width="52" height="23" fill="#4FA371"/>
<rect x="74" y="348.844" width="45" height="15" fill="#D9E8FF"/>
<rect x="74" y="363.844" width="45" height="4" fill="#EEF5FF"/>
<path d="M76.5312 370.375H116.469V375.919L112.089 380.312H81.1152L76.5312 375.889V370.375Z" fill="#6E85A0" stroke="#A4B7DB" stroke-width="5.0625"/>
<rect x="82" y="371.844" width="5" height="3" fill="#D9E8FF"/>
<rect x="89" y="371.844" width="6" height="3" fill="#D9E8FF"/>
<rect x="97" y="371.844" width="6" height="3" fill="#D9E8FF"/>
<rect x="105" y="371.844" width="6" height="3" fill="#D9E8FF"/>
<path d="M105.996 348.844H114L102.004 366.844H94L105.996 348.844Z" fill="#EEF5FF"/>
<path d="M92.3958 348.844H100L88.6042 366.844H81L92.3958 348.844Z" fill="#EEF5FF"/>
<path d="M41.9956 348.844H50L38.0044 366.844H30L41.9956 348.844Z" fill="#EEF5FF"/>
<path d="M28.9956 348.844H37L25.0044 366.844H17L28.9956 348.844Z" fill="#EEF5FF"/>
</svg>
